<?xml version="1.0" encoding="utf-8"?>
<!--Designed by Vexels.com - 2018 All Rights Reserved - https://vexels.com/terms-and-conditions/-->
<svg version="1.1" id="Layer_1" xmlns="http://www.w3.org/2000/svg" xmlns:xlink="http://www.w3.org/1999/xlink" x="0px" y="0px"
	 viewBox="0 0 1200 1200" enable-background="new 0 0 1200 1200" xml:space="preserve">
<g>
	<circle fill="#FFE26A" cx="600" cy="600" r="458.355"/>
	<g>
		<path fill="#5290FF" d="M952.844,813.297h-678.69c-2.75,0-5-2.25-5-5V385.674c0-2.75,2.25-5,5-5h678.69c2.75,0,5,2.25,5,5v422.623
			C957.844,811.047,955.594,813.297,952.844,813.297z"/>
		<path fill="#27DDE0" d="M70.202,912.6V245.736c0-4.835,3.944-8.779,8.797-8.779h234.283c4.833,0,8.78,3.945,8.78,8.779v120.731
			h-16.021c-25.882,0-46.93,21.068-46.93,46.95v368.409c0,25.882,21.048,46.932,46.93,46.932h16.021v54.624h-33.873
			c-16.037,0-29.077,13.06-29.077,29.098c0,3.123,0.623,6.075,1.537,8.897H78.999C74.146,921.378,70.202,917.434,70.202,912.6z"/>
		<path fill="#FF954D" d="M949.865,912.482c0,4.913-3.984,8.897-8.898,8.897H313.282h-25.093c-4.893,0-8.876-3.984-8.876-8.897
			c0-4.813,4.063-8.898,8.876-8.898h652.779C945.881,903.584,949.865,907.57,949.865,912.482z"/>
		<rect x="574.513" y="828.759" fill="#5290FF" width="80.152" height="54.624"/>
		<path fill="#27519A" d="M923.114,366.467H800.549c-5.583,0-10.101,4.518-10.101,10.1c0,5.582,4.518,10.1,10.101,10.1h122.565
			c14.756,0,26.75,11.995,26.75,26.75v368.409c0,14.736-11.994,26.73-26.75,26.73H306.041c-14.735,0-26.729-11.994-26.729-26.73
			V413.418c0-14.755,11.994-26.75,26.729-26.75h25.924c0.066,0.002,0.13,0.02,0.196,0.02c0.068,0,0.13-0.018,0.197-0.02h327.93
			c5.582,0,10.101-4.518,10.101-10.1c0-5.583-4.52-10.1-10.101-10.1H342.262V245.736c0-15.98-13.001-28.98-28.98-28.98H78.999
			c-15.998,0-28.999,13-28.999,28.98V912.6c0,15.98,13.001,28.98,28.999,28.98h209.189h25.093h627.685
			c16.039,0,29.099-13.06,29.099-29.098c0-16.039-13.06-29.098-29.099-29.098H674.864v-54.624h248.25
			c25.882,0,46.952-21.049,46.952-46.932V413.418C970.066,387.536,948.997,366.467,923.114,366.467z M342.262,883.383v-54.624
			h212.05v54.624H342.262z M70.202,912.6V245.736c0-4.835,3.944-8.779,8.797-8.779h234.283c4.833,0,8.78,3.945,8.78,8.779v120.731
			h-16.021c-25.882,0-46.93,21.068-46.93,46.95v368.409c0,25.882,21.048,46.932,46.93,46.932h16.021v54.624h-33.873
			c-16.037,0-29.077,13.06-29.077,29.098c0,3.123,0.623,6.075,1.537,8.897H78.999C74.146,921.378,70.202,917.434,70.202,912.6z
			 M949.865,912.482c0,4.913-3.984,8.897-8.898,8.897H313.282h-25.093c-4.893,0-8.876-3.984-8.876-8.897
			c0-4.813,4.063-8.898,8.876-8.898h652.779C945.881,903.584,949.865,907.57,949.865,912.482z M654.664,883.383h-80.152v-54.624
			h80.152V883.383z"/>
		<path fill="#FF954D" d="M909.089,459.954v275.316c0,16.708-13.592,30.301-30.301,30.301H350.371
			c-16.71,0-30.301-13.593-30.301-30.301V459.954c0-16.708,13.592-30.301,30.301-30.301h528.417
			C895.496,429.653,909.089,443.246,909.089,459.954z"/>
		<path fill="#27519A" d="M299.867,459.954v275.316c0,27.855,22.647,50.503,50.503,50.503h528.417
			c27.855,0,50.503-22.648,50.503-50.503V459.954c0-27.854-22.647-50.501-50.503-50.501H350.371
			C322.515,409.453,299.867,432.1,299.867,459.954z M909.089,459.954v275.316c0,16.708-13.592,30.301-30.301,30.301H350.371
			c-16.71,0-30.301-13.593-30.301-30.301V459.954c0-16.708,13.592-30.301,30.301-30.301h528.417
			C895.496,429.653,909.089,443.246,909.089,459.954z"/>
		<path fill="#FFFFFF" d="M596.39,467.905h178.058c2.781,0,5.052-2.269,5.052-5.051c0-2.781-2.27-5.05-5.052-5.05H596.39
			c-2.781,0-5.051,2.268-5.051,5.05C591.339,465.637,593.608,467.905,596.39,467.905z"/>
		<path fill="#FFFFFF" d="M123.821,268.62h-23.416c-2.781,0-5.051,2.268-5.051,5.05s2.269,5.05,5.051,5.05h23.416
			c2.781,0,5.05-2.269,5.05-5.05S126.602,268.62,123.821,268.62z"/>
		<path fill="#FFFFFF" d="M178.683,268.62h-23.397c-2.781,0-5.051,2.268-5.051,5.05s2.269,5.05,5.051,5.05h23.397
			c2.781,0,5.05-2.269,5.05-5.05S181.464,268.62,178.683,268.62z"/>
		<path fill="#FFFFFF" d="M233.564,268.62h-23.397c-2.781,0-5.05,2.268-5.05,5.05s2.268,5.05,5.05,5.05h23.397
			c2.781,0,5.05-2.269,5.05-5.05S236.345,268.62,233.564,268.62z"/>
		<path fill="#FFFFFF" d="M265.03,278.72h23.416c2.781,0,5.051-2.269,5.051-5.05s-2.27-5.05-5.051-5.05H265.03
			c-2.782,0-5.051,2.268-5.051,5.05S262.248,278.72,265.03,278.72z"/>
		<path fill="#FFFFFF" d="M123.821,303.931h-23.416c-2.781,0-5.051,2.269-5.051,5.05c0,2.783,2.269,5.051,5.051,5.051h23.416
			c2.781,0,5.05-2.268,5.05-5.051C128.87,306.2,126.602,303.931,123.821,303.931z"/>
		<path fill="#FFFFFF" d="M178.683,303.931h-23.397c-2.781,0-5.051,2.269-5.051,5.05c0,2.783,2.269,5.051,5.051,5.051h23.397
			c2.781,0,5.05-2.268,5.05-5.051C183.732,306.2,181.464,303.931,178.683,303.931z"/>
		<path fill="#FFFFFF" d="M233.564,303.931h-23.397c-2.781,0-5.05,2.269-5.05,5.05c0,2.783,2.268,5.051,5.05,5.051h23.397
			c2.781,0,5.05-2.268,5.05-5.051C238.614,306.2,236.345,303.931,233.564,303.931z"/>
		<path fill="#FFFFFF" d="M265.03,314.032h23.416c2.781,0,5.051-2.268,5.051-5.051c0-2.781-2.27-5.05-5.051-5.05H265.03
			c-2.782,0-5.051,2.269-5.051,5.05C259.978,311.764,262.248,314.032,265.03,314.032z"/>
		<path fill="#27519A" d="M1072.254,840.418c-42.887,0-77.766,34.878-77.766,77.745c0,4.971,0.513,10.12,1.54,15.269
			c0.927,4.734,5.07,8.148,9.903,8.148h132.627c4.814,0,8.956-3.393,9.903-8.109c1.026-5.07,1.54-10.218,1.54-15.308
			C1150,875.295,1115.121,840.418,1072.254,840.418z M1129.7,921.378h-114.912c-0.058-1.065-0.1-2.131-0.1-3.215
			c0-31.721,25.825-57.545,57.566-57.545c31.722,0,57.544,25.823,57.544,57.545C1129.798,919.248,1129.758,920.313,1129.7,921.378z"
			/>
		<path fill="#FFFFFF" d="M100.405,482.366c-2.781,0-5.051,2.269-5.051,5.05v175.001c0,2.781,2.269,5.05,5.051,5.05
			s5.05-2.269,5.05-5.05V487.416C105.455,484.634,103.186,482.366,100.405,482.366z"/>
		<path fill="#5290FF" d="M1129.7,921.378h-114.912c-0.058-1.065-0.1-2.131-0.1-3.215c0-31.721,25.825-57.545,57.566-57.545
			c31.722,0,57.544,25.823,57.544,57.545C1129.798,919.248,1129.758,920.313,1129.7,921.378z"/>
	</g>
</g>
</svg>
